<svg width="658" height="745" viewBox="0 0 658 745" fill="none" xmlns="http://www.w3.org/2000/svg">
<rect width="658" height="745" fill="#FBFBFB"/>
<path d="M349.221 660.356C326.348 649.175 317.233 622.594 314.009 597.835C313.465 593.724 312.324 589.449 313.624 585.503C314.924 581.557 318.931 578.337 322.779 579.447C325.976 580.365 327.847 583.681 329.983 586.298C332.824 589.829 336.579 592.452 340.81 593.861C343.569 594.779 346.846 595.067 349.115 593.204C352.22 590.641 351.769 585.681 351.132 581.598C349.832 574.026 348.558 566.453 347.311 558.881C346.412 554.84 346.148 550.676 346.528 546.549C347.112 542.439 349.248 538.328 352.83 536.629C356.413 534.93 361.441 536.314 362.887 540.178C363.314 541.839 363.633 543.528 363.843 545.234C364.227 546.919 365.302 548.659 366.934 548.865C368.566 549.07 369.986 547.632 370.981 546.22C374.377 541.384 376.288 535.588 378.013 529.847C379.737 524.106 381.356 518.255 384.328 513.103C387.3 507.951 391.838 503.512 397.45 502.142C403.062 500.772 409.696 503.375 412.045 508.869C414.393 514.364 412.124 520.79 409.391 526.079C405.24 533.91 400.016 541.082 393.881 547.371C392.657 548.378 391.775 549.76 391.36 551.317C390.949 554.195 393.894 556.469 396.667 556.908C399.772 557.401 402.93 556.524 406.074 556.36C409.219 556.195 412.788 557.017 414.459 559.826C416.755 563.717 414.088 568.691 411.235 572.158C405.506 579.064 398.671 584.904 391.028 589.422C388.295 591.025 385.39 592.532 383.386 595.053C381.383 597.574 380.573 601.493 382.457 604.124C384.341 606.755 388.149 607.042 391.095 605.919C394.04 604.795 396.495 602.617 399.215 600.986C404.309 597.917 411.395 597.067 415.68 601.315C417.017 602.8 418.001 604.586 418.556 606.53C419.111 608.475 419.221 610.527 418.878 612.523C418.172 616.5 416.696 620.289 414.539 623.663C407.668 635.86 397.788 645.959 385.907 652.929C374.032 659.643 362.542 662.918 349.235 660.369" fill="#F5F5F5"/>
<path d="M352.844 643.831C354.603 629.73 357.146 615.745 360.46 601.945L363.007 591.08C363.843 587.503 364.679 583.968 365.661 580.57C367.644 574.049 369.974 567.645 372.639 561.388C375.147 555.387 377.734 549.769 380.189 544.549C382.643 539.328 385.045 534.505 387.407 530.216C391.093 523.414 395.299 516.926 399.984 510.815C401.643 508.65 402.983 507.019 403.898 505.923C404.336 505.403 404.695 504.992 404.947 504.676C405.199 504.361 405.318 504.265 405.331 504.279C405.235 504.437 405.129 504.588 405.013 504.731L404.005 506.019C403.129 507.143 401.829 508.76 400.21 510.993C395.627 517.165 391.498 523.682 387.858 530.491C385.536 534.793 383.174 539.616 380.733 544.836C378.292 550.057 375.744 555.674 373.263 561.676C370.621 567.933 368.318 574.337 366.364 580.858C365.342 584.242 364.519 587.709 363.71 591.326L361.163 602.205C357.857 615.977 355.301 629.929 353.507 643.996" fill="#E0E0E0"/>
<path d="M365.886 580.515C365.598 579.982 365.371 579.417 365.209 578.83C364.811 577.747 364.294 576.09 363.684 574.158C362.463 570.184 360.95 564.635 359.305 558.524C357.66 552.413 356.081 546.891 354.794 542.959C354.157 540.986 353.627 539.383 353.255 538.3C353.032 537.737 352.859 537.155 352.738 536.56C353.058 537.071 353.32 537.618 353.52 538.191C353.985 539.246 354.582 540.821 355.285 542.767C356.705 546.686 358.363 552.18 360.022 558.318C361.68 564.457 363.073 569.828 364.188 573.993C364.705 575.884 365.13 577.473 365.515 578.748C365.688 579.325 365.813 579.916 365.886 580.515Z" fill="#E0E0E0"/>
<path d="M415.176 561.799C414.535 562.075 413.868 562.282 413.185 562.415C411.859 562.758 410.041 563.251 407.759 563.936C403.181 565.306 396.932 567.334 390.126 569.938C383.319 572.541 377.256 575.185 372.878 577.213C370.702 578.214 368.964 579.077 367.756 579.666C367.15 580.007 366.515 580.291 365.859 580.515C366.408 580.079 366.999 579.702 367.624 579.392C368.791 578.72 370.503 577.789 372.652 576.652C376.938 574.487 382.988 571.76 389.807 569.143C395.628 566.894 401.558 564.959 407.573 563.347C409.882 562.717 411.766 562.306 413.079 562.045C413.769 561.896 414.471 561.814 415.176 561.799Z" fill="#E0E0E0"/>
<path d="M353.308 642.776C353.138 642.597 352.987 642.399 352.857 642.187L351.676 640.447C350.654 638.912 349.235 636.679 347.523 633.884C344.073 628.293 339.562 620.415 334.693 611.646C329.824 602.877 325.405 594.971 322.049 589.326L318.068 582.626L317.007 580.803C316.867 580.601 316.755 580.38 316.675 580.146C316.675 580.146 316.848 580.324 317.126 580.721C317.405 581.118 317.843 581.762 318.307 582.475C319.329 583.996 320.748 586.229 322.473 589.038C325.91 594.628 330.434 602.493 335.303 611.262C340.173 620.031 344.591 627.937 347.934 633.596L351.915 640.282C352.339 641.009 352.697 641.653 352.976 642.105C353.118 642.31 353.23 642.537 353.308 642.776Z" fill="#E0E0E0"/>
<path d="M417.233 608.453C417.046 608.622 416.836 608.76 416.609 608.864L414.765 609.878L407.918 613.564C402.134 616.688 394.2 621.086 385.443 625.895C376.686 630.705 368.712 635.103 362.887 638.09C359.968 639.583 357.58 640.83 355.935 641.557L353.945 642.461C353.726 642.58 353.495 642.672 353.255 642.735C353.445 642.57 353.654 642.432 353.879 642.324L355.736 641.31L362.582 637.61C368.354 634.5 376.288 630.102 385.045 625.279C393.801 620.456 401.789 616.085 407.6 613.098C410.519 611.605 412.907 610.358 414.552 609.631L416.463 608.727C416.704 608.596 416.964 608.503 417.233 608.453Z" fill="#E0E0E0"/>
<path d="M183.32 366.248C183.32 366.248 167.558 368.509 176.408 404.16C185.257 439.812 192.767 458.2 192.767 458.2C192.767 458.2 193.948 466.27 187.645 466.024C181.343 465.777 168.487 460.543 164.122 467.517C159.611 474.807 163.564 483.576 173.409 492.77C183.254 501.963 204.244 522.913 206.128 524.818C208.012 526.722 209.391 530.641 205.066 531.176C200.741 531.71 170.066 527.997 169.243 543.137C168.42 558.278 200.038 579.214 203.448 581.57C206.857 583.927 207.428 585.763 206.632 587.818C205.836 589.874 195.673 587.613 186.903 586.914C178.132 586.215 167.837 587.024 168.062 595.793C168.288 604.562 184.899 626.759 233.327 643.256L256.267 649.38L273.21 632.144C307.308 592.97 311.036 565.197 307.016 557.469C302.996 549.741 293.748 554.331 286.398 559.428C279.048 564.526 271.352 571.76 269.707 570.39C268.062 569.02 267.637 567.129 269.468 563.333C271.299 559.538 288.667 525.147 280.653 512.432C272.639 499.716 247.802 518.652 243.822 520.392C239.841 522.132 239.125 517.994 239.841 515.419C240.558 512.843 248.651 483.905 252.817 470.819C256.983 457.734 256.187 448.116 248.757 444.115C241.593 440.265 232.982 451.445 227.622 454.898C222.261 458.351 219.422 450.787 219.422 450.787C219.422 450.787 217.087 430.988 207.614 395.501C198.14 360.014 183.028 366.371 183.028 366.371" fill="#EBEBEB"/>
<path d="M256.254 655.272C249.394 629.239 237.944 582.653 227.927 542.658C217.91 502.662 208.808 466.599 202.068 440.484C198.698 427.44 195.965 416.889 194.107 409.559C193.178 405.928 192.449 403.092 191.944 401.146L191.387 398.954C191.268 398.461 191.228 398.2 191.228 398.2C191.228 398.2 191.321 398.433 191.467 398.926C191.613 399.42 191.812 400.173 192.077 401.105C192.621 403.051 193.404 405.859 194.386 409.477C196.376 416.752 199.189 427.289 202.612 440.333C209.471 466.366 218.666 502.553 228.683 542.466C238.7 582.379 250.058 629.006 256.798 655.121" fill="#E0E0E0"/>
<path d="M181.821 475.656C182.351 475.882 182.858 476.162 183.334 476.492C184.276 477.068 185.629 477.944 187.314 479.041C190.618 481.247 195.115 484.412 200.011 487.988L212.509 497.195L216.317 499.936C216.798 500.244 217.243 500.607 217.644 501.018C217.109 500.795 216.598 500.515 216.118 500.182C215.176 499.607 213.823 498.73 212.138 497.62C208.861 495.387 204.403 492.139 199.507 488.577L186.942 479.465L183.121 476.725C182.652 476.418 182.216 476.059 181.821 475.656Z" fill="#E0E0E0"/>
<path d="M219.568 499.881C219.395 499.771 225.3 489.919 232.743 477.876C240.186 465.832 246.382 456.158 246.555 456.268C246.727 456.378 240.823 466.243 233.366 478.287C225.91 490.331 219.74 499.963 219.568 499.881Z" fill="#E0E0E0"/>
<path d="M232.279 561.922C232.646 561.449 233.069 561.026 233.539 560.662L237.108 557.428C240.12 554.688 244.273 550.906 248.704 546.549C253.136 542.192 257.036 538.122 259.823 535.149C261.149 533.779 262.237 532.559 263.126 531.628C263.528 531.168 263.972 530.751 264.453 530.381C264.159 530.905 263.803 531.388 263.392 531.82C262.675 532.71 261.601 533.971 260.247 535.505C257.594 538.588 253.719 542.74 249.261 547.097C244.803 551.454 240.611 555.208 237.506 557.839C235.941 559.209 234.667 560.196 233.765 560.895C233.307 561.293 232.809 561.637 232.279 561.922Z" fill="#E0E0E0"/>
<path d="M193.47 547.769C194.006 547.835 194.532 547.968 195.036 548.166L199.242 549.536C202.771 550.701 207.64 552.359 213.001 554.222C218.361 556.085 223.204 557.839 226.693 559.141L230.819 560.703C231.333 560.869 231.827 561.094 232.292 561.374C231.756 561.318 231.23 561.189 230.726 560.991L226.521 559.621C222.991 558.456 218.122 556.798 212.762 554.921C207.402 553.044 202.559 551.304 199.069 550.016L194.943 548.44C194.425 548.285 193.93 548.06 193.47 547.769Z" fill="#E0E0E0"/>
<path d="M197.955 604.014C198.637 604.119 199.308 604.293 199.958 604.534L205.345 606.233C209.882 607.699 216.132 609.768 223.031 612.111C229.93 614.454 236.153 616.592 240.651 618.195L245.958 620.113C246.618 620.331 247.261 620.602 247.882 620.922C247.194 620.817 246.519 620.643 245.865 620.401L240.478 618.702C235.94 617.236 229.691 615.167 222.792 612.824C215.893 610.481 209.67 608.33 205.186 606.74L199.878 604.808C199.215 604.604 198.571 604.338 197.955 604.014Z" fill="#E0E0E0"/>
<path d="M246.793 620.168C247.261 619.576 247.78 619.03 248.346 618.538L252.737 614.277C256.439 610.673 261.534 605.672 267.014 599.986C272.493 594.299 277.336 589.024 280.812 585.188L284.925 580.639C285.409 580.058 285.937 579.517 286.504 579.022C286.118 579.666 285.673 580.272 285.177 580.831C284.275 581.968 282.922 583.571 281.197 585.544C277.814 589.49 273.037 594.834 267.531 600.52C262.025 606.206 256.917 611.166 253.096 614.674C251.185 616.414 249.633 617.825 248.532 618.784C247.99 619.295 247.409 619.758 246.793 620.168Z" fill="#E0E0E0"/>
<path d="M114.858 153.638L101.909 149.528C101.909 149.528 98.5121 160.763 87.1548 157.324C84.9561 156.699 82.9999 155.383 81.5571 153.559C80.1142 151.735 79.256 149.493 79.1013 147.144C78.9313 145.162 79.2218 143.167 79.9487 141.325C80.6756 139.483 81.818 137.847 83.2806 136.552C86.6109 133.51 92.4487 131.661 100.688 136.059L109.803 105.915L96.9996 101.805L91.6924 119.466C91.6924 119.466 72.2683 118.466 66.0988 138.895C60.1946 158.448 75.7976 168.464 83.0683 170.807C88.5878 172.588 107.972 177.301 114.858 153.638Z" fill="#F5F5F5"/>
<path d="M98.7341 95.5303L111.729 99.7178L115.515 87.1874L102.52 82.9999L98.7341 95.5303Z" fill="#F5F5F5"/>
<path d="M150.589 119.603L155.776 118.233C155.618 117.624 155.58 116.989 155.664 116.365C155.748 115.741 155.952 115.141 156.266 114.6C156.579 114.06 156.994 113.59 157.486 113.218C157.979 112.846 158.539 112.581 159.133 112.437C159.997 112.168 160.921 112.182 161.777 112.479C162.633 112.776 163.378 113.341 163.909 114.095C164.36 114.721 164.662 115.448 164.789 116.217C164.915 116.986 164.864 117.776 164.639 118.521C164.148 120.261 162.569 122.152 158.907 122.467L161.999 134.538L167.12 133.168L165.316 126.098C167.258 124.888 168.761 123.052 169.593 120.873C170.425 118.694 170.54 116.293 169.92 114.04C167.93 106.203 160.632 106.244 157.753 107.025C155.524 107.559 148.081 110.176 150.589 119.603Z" fill="#EBEBEB"/>
<path d="M168.927 134.928L163.702 136.375L165.009 141.412L170.235 139.965L168.927 134.928Z" fill="#EBEBEB"/>
<path d="M578.888 258.278L583.93 260.156C584.141 259.566 584.465 259.026 584.881 258.568C585.298 258.109 585.799 257.741 586.356 257.486C586.912 257.231 587.512 257.093 588.121 257.081C588.73 257.069 589.335 257.182 589.9 257.415C590.749 257.697 591.493 258.244 592.03 258.98C592.567 259.716 592.87 260.605 592.899 261.526C592.93 262.312 592.78 263.094 592.462 263.808C592.144 264.523 591.666 265.149 591.068 265.636C589.741 266.773 587.366 267.39 584.182 265.499L580.055 277.242L585.044 279.105L587.459 272.254C589.723 272.399 591.971 271.772 593.857 270.47C595.744 269.169 597.164 267.263 597.901 265.047C600.554 257.429 594.57 253.195 591.744 252.14C589.582 251.263 582.019 249.057 578.888 258.278Z" fill="#EBEBEB"/>
<path d="M584.298 281.485L579.233 279.591L577.521 284.473L582.585 286.368L584.298 281.485Z" fill="#EBEBEB"/>
<path d="M43.8217 317.908L54.436 313.661C54.436 313.661 50.9864 304.412 60.234 300.535C62.0039 299.761 63.9625 299.574 65.8399 299.998C67.7172 300.423 69.4207 301.438 70.7156 302.905C71.8173 304.124 72.6247 305.595 73.072 307.197C73.5192 308.8 73.5938 310.488 73.2896 312.126C72.6262 315.935 69.7073 320.347 62.0252 321.868L71.3127 346.709L81.927 342.517L76.4871 327.965C76.4871 327.965 89.755 318.128 83.5324 301.274C77.4955 285.161 62.0517 286.997 56.121 289.368C51.5436 291.19 36.3652 298.548 43.8217 317.908Z" fill="#F5F5F5"/>
<path d="M83.9378 347.573L73.2284 351.834L77.0825 362.165L87.7918 357.904L83.9378 347.573Z" fill="#F5F5F5"/>
<path d="M583.04 359.712L575.478 362.713C575.478 362.713 577.919 369.276 571.365 372.016C570.11 372.558 568.724 372.688 567.395 372.389C566.066 372.09 564.858 371.376 563.935 370.344C563.154 369.48 562.583 368.438 562.267 367.302C561.951 366.166 561.899 364.969 562.117 363.809C562.595 361.068 564.664 357.999 570.078 356.958L563.576 339.296L556.093 342.27L559.941 352.587C557.218 354.739 555.254 357.754 554.353 361.171C553.452 364.587 553.662 368.215 554.952 371.495C559.211 382.909 570.117 381.621 574.363 379.936C577.574 378.634 588.321 373.427 583.04 359.712Z" fill="#F5F5F5"/>
<path d="M554.613 338.691L562.202 335.671L559.474 328.358L551.884 331.378L554.613 338.691Z" fill="#F5F5F5"/>
<path d="M519.186 134.313H524.493C524.49 133.692 524.607 133.075 524.838 132.501C525.069 131.927 525.409 131.407 525.839 130.971C526.268 130.536 526.778 130.193 527.337 129.965C527.897 129.736 528.496 129.626 529.097 129.641C529.986 129.608 530.862 129.862 531.604 130.368C532.346 130.874 532.917 131.607 533.237 132.463C533.516 133.177 533.628 133.949 533.564 134.715C533.499 135.482 533.26 136.222 532.865 136.875C531.963 138.41 530 139.794 526.444 139.15V151.481H531.658V144.274C533.798 143.624 535.672 142.266 536.992 140.41C538.313 138.554 539.007 136.301 538.969 133.998C538.969 126.024 532.043 124.174 529.071 124.174C526.802 124.119 519.08 124.681 519.186 134.313Z" fill="#2E5CFF"/>
<path d="M531.698 153.975H526.404V159.086H531.698V153.975Z" fill="#2E5CFF"/>
<path d="M490.249 141.603C490.231 141.835 490.231 142.069 490.249 142.301C490.249 142.795 490.249 143.466 490.249 144.329C490.249 144.768 490.249 145.275 490.315 145.823C490.382 146.371 490.461 146.974 490.554 147.604C490.647 148.234 490.74 148.974 490.846 149.7L491.403 152.03C492.389 156.041 494.002 159.859 496.18 163.334C499.342 168.479 503.604 172.807 508.639 175.985C513.674 179.163 519.347 181.107 525.223 181.666C526.988 181.827 528.761 181.864 530.53 181.776C531.419 181.776 532.335 181.776 533.184 181.598L535.917 181.173C539.667 180.453 543.296 179.175 546.691 177.378C550.234 175.441 553.491 172.991 556.363 170.102C559.303 167.025 561.76 163.493 563.647 159.634C565.677 155.656 567.006 151.336 567.574 146.878C567.74 145.748 567.833 144.608 567.853 143.466C567.941 142.322 567.963 141.174 567.919 140.027C567.63 132.677 565.406 125.547 561.484 119.406V119.831C563.328 115.076 565.146 110.404 566.924 105.855L567.242 105.019L566.407 105.266L551.945 109.376L552.29 109.458C547.419 105.65 541.745 103.087 535.731 101.977C532.942 101.44 530.099 101.261 527.266 101.443C525.901 101.464 524.539 101.597 523.193 101.84L521.216 102.155C520.566 102.279 519.889 102.484 519.306 102.635C510.394 104.967 502.577 110.499 497.255 118.241C495.27 121.093 493.676 124.215 492.518 127.517C492.266 128.243 492.027 128.887 491.801 129.6C491.576 130.312 491.456 130.97 491.311 131.587C491.165 132.203 491.005 132.834 490.873 133.409C490.74 133.984 490.7 134.546 490.621 135.081C490.501 136.136 490.315 137.067 490.276 137.821C490.236 138.575 490.276 139.301 490.276 139.876C490.276 140.452 490.276 140.808 490.276 141.123C490.276 141.438 490.276 141.548 490.276 141.548C490.296 141.407 490.296 141.264 490.276 141.123C490.276 140.808 490.276 140.397 490.368 139.876C490.461 139.356 490.448 138.629 490.501 137.835C490.554 137.04 490.753 136.108 490.912 135.094C492.178 127.511 495.549 120.47 500.615 114.827C505.681 109.184 512.225 105.182 519.452 103.306C520.075 103.156 520.699 102.964 521.336 102.84L523.286 102.539C524.602 102.312 525.932 102.188 527.266 102.169C530.047 102.018 532.835 102.206 535.572 102.731C541.445 103.847 546.984 106.367 551.746 110.089L551.905 110.226H552.104L566.579 106.115L566.075 105.526L560.622 119.488L560.542 119.707L560.662 119.913C563.274 123.995 565.128 128.544 566.128 133.327C566.586 135.546 566.861 137.801 566.95 140.068C566.995 141.187 566.973 142.308 566.884 143.425C566.876 144.54 566.787 145.653 566.619 146.754C566.109 151.109 564.856 155.335 562.917 159.237C561.073 163.008 558.679 166.465 555.819 169.486C553.009 172.322 549.818 174.726 546.346 176.624C543.027 178.407 539.473 179.676 535.798 180.392L533.144 180.817C532.255 180.954 531.366 180.94 530.49 181.009C528.761 181.094 527.028 181.062 525.303 180.913C519.523 180.39 513.935 178.515 508.962 175.428C503.99 172.342 499.763 168.126 496.604 163.101C494.415 159.687 492.775 155.93 491.748 151.975L491.151 149.673C491.032 148.947 490.926 148.303 490.82 147.618C490.713 146.933 490.634 146.385 490.541 145.836C490.448 145.288 490.475 144.795 490.435 144.357C490.435 143.507 490.329 142.836 490.289 142.343C490.314 142.095 490.301 141.845 490.249 141.603Z" fill="#263238"/>
<path d="M172.268 303.179H248.89C248.89 303.179 248.89 236.739 315.746 235.561C350.468 234.931 368.473 258.429 375.797 276.419C384.288 297.315 381.714 321.128 370.33 340.516C357.341 362.644 329.346 384.882 277.707 375.483L277.216 551.783H352.989V447.266C352.989 447.266 459.251 418.904 459.251 297.917C459.251 182.206 368.645 157.214 319.939 155.598C292.846 154.707 283.028 153.501 249.513 158.42C206.804 164.723 171.366 215.94 172.268 303.179Z" fill="#2E5CFF"/>
<path d="M353.904 588.531H277.004V662.699H353.904V588.531Z" fill="#2E5CFF"/>
<path opacity="0.1" d="M353.904 588.531H277.004V662.699H353.904V588.531Z" fill="black"/>
<path opacity="0.1" d="M172.268 303.179H248.89C248.89 303.179 248.89 236.739 315.746 235.561C350.468 234.931 368.473 258.429 375.797 276.419C384.288 297.315 381.714 321.128 370.33 340.516C357.341 362.644 329.346 384.882 277.707 375.483L277.216 551.783H352.989V447.266C352.989 447.266 459.251 418.904 459.251 297.917C459.251 182.206 368.645 157.214 319.939 155.598C292.846 154.707 283.028 153.501 249.513 158.42C206.804 164.723 171.366 215.94 172.268 303.179Z" fill="black"/>
<path d="M140.518 303.179H217.153C217.153 303.179 217.153 236.739 284.009 235.561C318.731 234.93 336.736 258.429 344.046 276.419C352.551 297.314 349.977 321.128 338.593 340.516C325.604 362.644 297.118 382.758 245.479 373.4V551.783H321.252V447.266C321.252 447.266 427.514 418.904 427.514 297.917C427.514 182.206 327.024 155.337 284.023 155.337C251.132 155.378 139.071 163.585 140.518 303.179Z" fill="#2E5CFF"/>
<path opacity="0.3" d="M140.518 303.179H217.153C217.153 303.179 217.153 236.739 284.009 235.561C318.731 234.93 336.736 258.429 344.046 276.419C352.551 297.314 349.977 321.128 338.593 340.516C325.604 362.644 297.118 382.758 245.479 373.4V551.783H321.252V447.266C321.252 447.266 427.514 418.904 427.514 297.917C427.514 182.206 327.024 155.337 284.023 155.337C251.132 155.378 139.071 163.585 140.518 303.179Z" fill="black"/>
<path d="M322.168 588.531H245.267V662.699H322.168V588.531Z" fill="#2E5CFF"/>
<path opacity="0.3" d="M322.168 588.531H245.267V662.699H322.168V588.531Z" fill="black"/>
<path d="M292.66 235.917C292.28 235.951 291.899 235.951 291.519 235.917C290.763 235.917 289.675 235.657 288.255 235.643C284.241 235.439 280.218 235.614 276.234 236.164C270.328 236.936 264.515 238.346 258.893 240.37C255.579 241.566 252.351 243.004 249.234 244.673C245.865 246.411 242.692 248.53 239.774 250.989C236.876 253.471 234.279 256.305 232.039 259.429C229.916 262.318 227.979 265.348 226.241 268.5C223.34 273.867 221.038 279.558 219.382 285.463C218.259 289.447 217.486 293.529 217.073 297.657C216.914 299.11 216.874 300.26 216.834 301.028C216.835 301.423 216.8 301.818 216.728 302.206C216.694 301.814 216.694 301.42 216.728 301.028C216.728 300.247 216.728 299.096 216.848 297.63C217.153 293.457 217.859 289.326 218.957 285.298C220.553 279.326 222.824 273.568 225.724 268.144C227.465 264.957 229.411 261.895 231.548 258.977C233.807 255.801 236.436 252.925 239.376 250.414C242.33 247.92 245.543 245.774 248.956 244.015C252.092 242.316 255.342 240.851 258.681 239.63C264.354 237.614 270.222 236.235 276.181 235.52C280.191 235.011 284.24 234.915 288.268 235.232C289.363 235.304 290.453 235.442 291.532 235.643C291.914 235.707 292.291 235.799 292.66 235.917Z" fill="#263238"/>
<path d="M408.117 221.818C408.117 221.818 408.024 221.722 407.865 221.517C407.706 221.311 407.467 220.955 407.201 220.557L404.667 216.858C404.123 216.063 403.539 215.145 402.849 214.2L400.461 211.199L397.728 207.733C396.733 206.527 395.565 205.362 394.398 204.088C393.23 202.814 392.036 201.457 390.683 200.156C389.33 198.854 387.883 197.525 386.397 196.155C385.654 195.47 384.925 194.784 384.129 194.058L381.661 192.044C379.976 190.674 378.304 189.304 376.486 187.934C368.563 182.08 360.159 176.954 351.37 172.615L344.378 169.354L337.439 166.614C335.17 165.641 332.862 164.956 330.633 164.188C328.404 163.421 326.228 162.64 323.999 162.106L317.657 160.393C315.6 159.831 313.557 159.489 311.606 159.023C309.656 158.557 307.772 158.146 305.928 157.913L300.621 157.118C297.264 156.529 294.186 156.406 291.506 156.132C290.179 156.022 288.852 155.872 287.751 155.817L284.593 155.734L280.215 155.584H279.074H278.689C278.816 155.563 278.946 155.563 279.074 155.584H280.215H284.593H287.764C288.918 155.584 290.179 155.748 291.532 155.844C294.186 156.077 297.317 156.173 300.674 156.735L305.981 157.475C307.825 157.694 309.709 158.187 311.673 158.557C313.636 158.927 315.653 159.311 317.763 159.927L324.131 161.626C326.334 162.147 328.51 162.996 330.765 163.695C333.021 164.394 335.316 165.065 337.585 166.107L344.564 168.847L351.596 172.122C360.431 176.471 368.868 181.634 376.805 187.55C378.636 188.92 380.307 190.386 381.992 191.743L384.46 193.592C385.256 194.277 385.986 194.963 386.729 195.702L391.001 199.813C392.328 201.183 393.522 202.553 394.703 203.8C395.884 205.047 397.012 206.266 398.007 207.486L400.66 210.98L403.022 214.022C403.699 214.981 404.269 215.912 404.8 216.762C405.835 218.365 406.644 219.626 407.215 220.53L407.838 221.53C407.943 221.613 408.036 221.71 408.117 221.818Z" fill="#263238"/>
<path d="M400.13 391.72C399.972 392.016 399.78 392.292 399.559 392.542L397.728 394.775C396.972 395.775 396.017 396.967 394.836 398.297C393.655 399.626 392.394 401.188 390.855 402.804C389.316 404.421 387.671 406.23 385.8 408.052C383.93 409.875 381.9 411.793 379.737 413.793C370.251 422.343 359.853 429.749 348.743 435.867C346.169 437.237 343.741 438.607 341.393 439.662C339.044 440.717 336.855 441.8 334.839 442.676C332.822 443.553 330.964 444.28 329.346 444.924C327.727 445.568 326.307 446.088 325.14 446.472L322.486 447.362C322.178 447.489 321.858 447.581 321.531 447.636C321.817 447.467 322.119 447.33 322.433 447.225L325.087 446.212C326.241 445.787 327.634 445.239 329.24 444.554C330.845 443.869 332.702 443.183 334.693 442.211C336.683 441.238 338.885 440.32 341.181 439.128C343.476 437.936 345.93 436.675 348.491 435.291C353.546 432.414 358.999 429.043 364.505 425.152C370.012 421.261 374.961 417.164 379.365 413.3C381.528 411.327 383.598 409.477 385.442 407.614C387.286 405.75 389.011 404.065 390.537 402.448C392.063 400.831 393.403 399.338 394.597 398.023C395.791 396.707 396.773 395.556 397.569 394.597L399.426 392.419C399.642 392.166 399.877 391.933 400.13 391.72Z" fill="#263238"/>
<path d="M319.912 545.562C319.713 545.562 319.554 523.557 319.554 496.414C319.554 469.271 319.713 447.252 319.912 447.252C320.111 447.252 320.257 469.257 320.257 496.414C320.257 523.571 320.098 545.562 319.912 545.562Z" fill="#263238"/>
<path d="M322.831 657.67C322.632 657.67 322.486 642.228 322.486 623.183C322.486 604.137 322.632 588.682 322.831 588.682C323.03 588.682 323.176 604.123 323.176 623.183C323.176 642.242 323.017 657.67 322.831 657.67Z" fill="#263238"/>
<path d="M398.26 292.67C396.934 295.41 401.883 297.657 404.735 298.548C407.645 299.285 410.657 299.499 413.638 299.178C417.618 298.959 421.691 298.575 425.128 296.547C428.137 294.622 430.543 291.838 432.054 288.532C433.543 285.236 434.721 281.799 435.57 278.269C435.57 278.269 404.218 280.379 398.26 292.67Z" fill="#2E5CFF"/>
<g opacity="0.4">
<path d="M398.26 292.67C396.934 295.41 401.883 297.657 404.735 298.548C407.645 299.285 410.657 299.499 413.638 299.178C417.618 298.959 421.691 298.575 425.128 296.547C428.137 294.622 430.543 291.838 432.054 288.532C433.543 285.236 434.721 281.799 435.57 278.269C435.57 278.269 404.218 280.379 398.26 292.67Z" fill="black"/>
</g>
<path d="M486.81 283.9C491.979 287.687 498.173 289.691 504.509 289.628C507.547 289.803 510.542 288.828 512.934 286.887C513.956 285.915 514.726 284.681 515.774 283.75C516.49 283.119 517.326 282.64 518.003 281.969C518.36 281.651 518.635 281.247 518.804 280.793C518.973 280.338 519.031 279.848 518.971 279.365C518.709 278.175 518.064 277.112 517.14 276.351C513.545 274.241 509.246 274.323 505.106 274.419C500.964 274.604 496.871 275.431 492.966 276.871C489.755 277.995 486.399 279.612 484.767 282.626" fill="#2E5CFF"/>
<g opacity="0.4">
<path d="M518.971 279.365C518.502 278.209 517.677 277.246 516.623 276.625C513.027 274.515 509.246 274.323 505.106 274.419C500.964 274.604 496.871 275.431 492.966 276.871C489.755 277.995 486.399 279.612 484.767 282.626L486.81 283.9C491.979 287.686 498.173 289.691 504.509 289.628C507.547 289.802 510.542 288.828 512.934 286.887C513.956 285.914 514.726 284.681 515.774 283.75C516.49 283.119 517.326 282.64 518.003 281.968C518.36 281.651 518.635 281.247 518.804 280.793C518.973 280.338 519.031 279.848 518.971 279.365Z" fill="black"/>
</g>
<path d="M425.592 333.076L491.733 333.98C491.867 333.98 492 333.947 492.12 333.884C492.24 333.821 492.344 333.73 492.424 333.618C492.504 333.507 492.558 333.377 492.58 333.24C492.603 333.103 492.594 332.962 492.555 332.829L484.793 307.837C484.793 307.837 485.934 295.341 487.513 280.324C489.915 257.511 493.112 228.833 493.152 228.915C488.628 215.816 461.933 213.597 461.933 213.597L431.51 215.46L430.448 213.61L421.692 217.817C419.782 218.734 417.945 219.806 416.199 221.023C410.414 225.01 396.483 234.177 393.935 244.384C388.058 268.02 398.008 294.396 398.008 294.396L404.404 289.23C406.014 287.948 407.708 286.781 409.472 285.736L422.289 321.21C421.526 321.707 420.88 322.373 420.398 323.16C419.916 323.947 419.61 324.835 419.502 325.759C419.396 328.636 420.829 332.089 425.592 333.076Z" fill="#2E5CFF"/>
<g opacity="0.3">
<path d="M453.972 291.258C456.068 279.611 454.967 267.636 453.839 255.853C450.177 265.444 450.31 276.405 446.423 285.914C445.946 286.918 445.598 287.982 445.388 289.079C445.286 289.63 445.313 290.198 445.465 290.736C445.617 291.274 445.891 291.768 446.263 292.176C447.325 293.176 448.917 292.628 450.323 292.464C451.582 292.216 452.808 291.811 453.972 291.258Z" fill="black"/>
</g>
<g opacity="0.4">
<path d="M429.573 318.223C434.88 320.128 440.532 316.579 446.144 315.949C449.859 315.538 453.574 316.415 457.263 317.031C464.721 318.277 472.309 318.471 479.818 317.607C480.97 317.541 482.098 317.239 483.135 316.716C483.671 316.339 484.109 315.832 484.412 315.24C484.715 314.648 484.873 313.988 484.873 313.318C472.375 311.948 459.89 311.208 447.391 309.879C444.28 309.331 441.094 309.438 438.024 310.194C434.256 311.4 431.39 314.455 428.737 317.484" fill="black"/>
</g>
<path d="M517.061 274.871C511.661 262.306 492.621 227.559 492.621 227.559L477.881 246.645L481.317 284.119C481.317 284.119 489.105 275.145 510.878 274.967C512.46 275.032 514.008 275.462 515.409 276.226C516.809 276.989 518.026 278.066 518.971 279.379L517.061 274.871Z" fill="#2E5CFF"/>
<path d="M428.551 268.226C427.5 265.562 426.665 262.812 426.057 260.005C425.233 257.27 424.629 254.47 424.252 251.633C425.289 254.301 426.118 257.05 426.733 259.854C427.558 262.589 428.166 265.389 428.551 268.226Z" fill="#263238"/>
<path d="M476.766 244.11C477.246 244.461 477.691 244.86 478.093 245.302C479.265 246.471 480.364 247.716 481.383 249.029C484.814 253.36 487.226 258.454 488.429 263.909C489.053 266.925 489.192 270.027 488.84 273.09C488.508 275.898 487.991 278.365 487.646 280.447C487.301 282.53 487.089 284.229 486.982 285.407C486.979 286.02 486.917 286.63 486.797 287.23C486.703 286.618 486.676 285.998 486.717 285.38C486.775 283.701 486.926 282.027 487.168 280.365C487.447 278.269 487.911 275.775 488.216 273.021C488.523 270.028 488.366 267.003 487.752 264.06C486.564 258.706 484.259 253.684 480.999 249.344C478.571 245.974 476.66 244.22 476.766 244.11Z" fill="#263238"/>
<path d="M463.26 330.061C462.799 330.274 462.312 330.421 461.814 330.5C461.247 330.654 460.671 330.769 460.089 330.842C459.412 330.938 458.643 331.089 457.78 331.13C455.759 331.322 453.725 331.322 451.704 331.13C449.23 330.868 446.787 330.363 444.406 329.623C442.038 328.837 439.745 327.823 437.56 326.595C435.788 325.574 434.106 324.395 432.532 323.073C431.842 322.525 431.284 321.95 430.78 321.47C430.345 321.066 429.933 320.636 429.546 320.182C429.177 319.83 428.86 319.424 428.604 318.977C428.697 318.881 430.117 320.525 432.837 322.676C434.426 323.925 436.107 325.042 437.865 326.019C440.026 327.192 442.281 328.168 444.605 328.938C446.945 329.666 449.343 330.179 451.77 330.472C453.752 330.693 455.748 330.757 457.74 330.664C461.15 330.472 463.233 329.952 463.26 330.061Z" fill="#263238"/>
<path d="M483.679 322.279C483.991 322.898 484.168 323.581 484.197 324.279C484.408 325.95 484.286 327.647 483.838 329.267C483.383 330.924 482.459 332.402 481.185 333.514C480.216 334.35 479.473 334.61 479.433 334.542C479.394 334.473 480.017 334.021 480.853 333.172C481.926 332.016 482.706 330.604 483.122 329.061C484.183 325.444 483.427 322.293 483.679 322.279Z" fill="#263238"/>
<path d="M480.083 327.102C480.371 328.511 480.256 329.977 479.752 331.319C479.248 332.662 478.376 333.825 477.244 334.665C477.098 334.515 478.332 333.158 479.101 331.062C479.871 328.965 479.884 327.116 480.083 327.102Z" fill="#263238"/>
<path d="M468.248 282.023C467.545 283.25 466.756 284.423 465.887 285.531C465.201 286.768 464.424 287.95 463.565 289.066C463.82 287.62 464.422 286.263 465.316 285.12C466.023 283.847 467.032 282.782 468.248 282.023Z" fill="#263238"/>
<path d="M422.846 248.838C421.835 248.225 420.856 247.557 419.914 246.837C415.195 243.636 409.84 241.571 404.244 240.795C403.073 240.707 401.908 240.546 400.755 240.315C401.93 240.148 403.122 240.148 404.298 240.315C410.046 240.822 415.551 242.939 420.219 246.44C421.198 247.109 422.082 247.916 422.846 248.838Z" fill="#263238"/>
<path d="M492.621 227.106C490.247 229.081 488.028 231.248 485.987 233.587C484.108 236.084 482.427 238.732 480.959 241.507C481.116 240.574 481.426 239.675 481.874 238.849C482.835 236.794 484.038 234.871 485.457 233.122C486.879 231.376 488.511 229.824 490.313 228.504C490.999 227.904 491.78 227.432 492.621 227.106Z" fill="#263238"/>
<path d="M465.316 215.816C465.437 216.014 465.535 216.226 465.608 216.447C465.867 217.067 466.076 217.709 466.232 218.365C466.791 220.807 466.791 223.35 466.232 225.791C465.406 229.436 463.517 232.732 460.819 235.232C457.413 238.211 453.074 239.808 448.612 239.726C444.146 239.742 439.795 238.266 436.207 235.52C433.348 233.265 431.028 230.364 429.427 227.038C428.348 224.811 427.588 222.434 427.171 219.982C427.05 219.321 426.97 218.653 426.933 217.981C426.895 217.745 426.895 217.505 426.933 217.269C426.933 217.269 427.078 218.228 427.45 219.927C427.966 222.31 428.782 224.614 429.878 226.778C431.496 230.003 433.795 232.813 436.605 234.999C440.062 237.643 444.244 239.082 448.546 239.109C452.847 239.191 457.033 237.674 460.341 234.834C462.947 232.426 464.796 229.267 465.648 225.764C466.238 223.399 466.32 220.93 465.887 218.529C465.635 216.721 465.237 215.844 465.316 215.816Z" fill="#263238"/>
<g opacity="0.3">
<path d="M469.96 284.448C469.96 283.763 469.854 282.955 469.27 282.612C469.085 282.516 468.88 282.466 468.673 282.466C468.465 282.466 468.261 282.516 468.076 282.612C467.705 282.819 467.376 283.099 467.107 283.434C465.547 285.111 464.341 287.103 463.565 289.285L470.066 288.696C470.026 287.312 470 285.86 469.96 284.448Z" fill="black"/>
</g>
<g opacity="0.3">
<path d="M491.547 270.322C490.893 266.48 489.263 262.886 486.823 259.909C489.636 269.39 488.694 274.748 487.115 281.242L487.46 280.338C489.278 276.543 492.038 274.158 491.547 270.322Z" fill="black"/>
</g>
<path d="M478.558 588.833L474.591 650.285L448.718 649.97L444.645 586.079L478.558 588.833Z" fill="#FFBE9D"/>
<path d="M475.32 642.201V643.982C475.32 643.982 504.509 656.094 504.788 661.794L446.821 661.465L447.723 641.557C456.36 645.736 465.396 646.256 475.32 642.201Z" fill="#2E5CFF"/>
<path d="M453.6 647.942C453.05 648.113 452.58 648.486 452.277 648.991C451.974 649.495 451.859 650.097 451.955 650.682C452.097 651.266 452.453 651.771 452.948 652.091C453.442 652.41 454.038 652.519 454.609 652.395C455.199 652.212 455.703 651.81 456.022 651.265C456.34 650.721 456.452 650.073 456.334 649.449C456.123 648.857 455.698 648.373 455.148 648.099C454.599 647.826 453.967 647.784 453.388 647.983" fill="white"/>
<path d="M446.821 661.465L447.033 656.683L502.546 658.766C502.546 658.766 505.12 659.944 504.814 661.808L446.821 661.465Z" fill="#263238"/>
<path d="M475.532 644.146C475.532 644.434 474.1 644.557 472.706 645.516C471.313 646.475 470.557 647.667 470.305 647.558C470.053 647.448 470.477 645.749 472.189 644.653C473.901 643.557 475.599 643.831 475.532 644.146Z" fill="#263238"/>
<path d="M481.596 646.777C481.662 647.065 480.428 647.544 479.46 648.778C478.491 650.011 478.212 651.312 477.921 651.299C477.629 651.285 477.469 649.627 478.703 648.134C479.937 646.64 481.583 646.572 481.596 646.777Z" fill="#263238"/>
<path d="M485.006 654.313C484.74 654.313 484.356 652.943 485.099 651.312C485.842 649.682 487.155 649.093 487.274 649.326C487.394 649.559 486.571 650.422 485.948 651.751C485.324 653.08 485.298 654.286 485.006 654.313Z" fill="#263238"/>
<path d="M473.834 139.402C475.333 135.566 473.516 130.921 470.292 128.441C466.894 126.131 462.75 125.299 458.762 126.125C454.827 126.977 451.017 128.359 447.431 130.236C445.763 128.499 443.661 127.275 441.359 126.7C439.057 126.126 436.645 126.224 434.393 126.983C432.142 127.742 430.139 129.132 428.608 130.998C427.077 132.865 426.079 135.134 425.725 137.552C424.29 137.18 422.785 137.217 421.369 137.661C419.954 138.105 418.682 138.938 417.691 140.072C416.699 141.206 416.025 142.597 415.741 144.096C415.457 145.596 415.574 147.146 416.079 148.582L434.017 155.091L453.601 190.715C456.495 193.265 460.189 194.641 463.993 194.585C467.797 194.529 471.451 193.046 474.274 190.413C477.097 187.779 478.896 184.175 479.335 180.272C479.774 176.37 478.823 172.435 476.66 169.203C477.757 168.196 478.689 167.011 479.42 165.696C480.985 164.74 482.35 163.473 483.437 161.967C484.523 160.462 485.309 158.749 485.749 156.927C487.487 148.993 481.543 140.334 473.834 139.402Z" fill="#263238"/>
<path d="M461.959 213.597C460.845 207.801 460.075 203.827 460.089 203.868C460.102 203.91 470.703 199.621 469.933 184.371C469.562 176.78 466.762 164.819 464.162 155.118C461.827 146.376 453.932 136.744 445.587 139.525L420.285 152.268C417.751 153.117 417.313 155.584 417.91 158.255V159.626L427.741 201.635L431.894 220.406C432.78 224.261 435.03 227.633 438.203 229.86C441.375 232.087 445.24 233.006 449.036 232.437C451.11 232.135 453.101 231.4 454.889 230.275C456.677 229.151 458.224 227.66 459.434 225.896C460.644 224.132 461.492 222.131 461.927 220.016C462.361 217.901 462.372 215.716 461.959 213.597Z" fill="#FFBE9D"/>
<path d="M464.069 165.257C464.176 165.743 464.097 166.253 463.85 166.681C463.604 167.11 463.207 167.424 462.742 167.559C462.508 167.627 462.263 167.644 462.021 167.612C461.78 167.579 461.548 167.496 461.338 167.368C461.129 167.24 460.946 167.069 460.802 166.867C460.658 166.664 460.555 166.434 460.5 166.189C460.394 165.704 460.473 165.196 460.72 164.77C460.967 164.344 461.363 164.033 461.827 163.901C462.06 163.831 462.305 163.811 462.546 163.842C462.788 163.873 463.02 163.954 463.23 164.081C463.44 164.208 463.623 164.378 463.767 164.58C463.911 164.782 464.014 165.013 464.069 165.257Z" fill="#263238"/>
<path d="M462.915 162.339C462.729 162.64 461.123 161.887 459.16 162.339C457.196 162.791 455.949 164.106 455.684 163.901C455.418 163.695 455.684 163.312 456.228 162.709C456.957 161.912 457.907 161.367 458.947 161.147C459.974 160.918 461.044 161.038 461.999 161.489C462.742 161.804 462.994 162.215 462.915 162.339Z" fill="#263238"/>
<path d="M444.804 169.751C444.91 170.236 444.831 170.744 444.584 171.17C444.337 171.596 443.941 171.907 443.477 172.04C443.248 172.108 443.008 172.13 442.771 172.102C442.534 172.075 442.304 171.999 442.096 171.879C441.887 171.759 441.704 171.598 441.556 171.404C441.408 171.211 441.299 170.989 441.235 170.752C441.128 170.265 441.207 169.756 441.454 169.327C441.7 168.899 442.097 168.585 442.562 168.45C442.792 168.381 443.033 168.36 443.27 168.389C443.508 168.417 443.738 168.494 443.947 168.616C444.156 168.737 444.339 168.899 444.486 169.094C444.633 169.289 444.741 169.513 444.804 169.751Z" fill="#263238"/>
<path d="M443.835 167.175C443.663 167.477 442.044 166.71 440.08 167.175C438.117 167.641 436.87 168.929 436.604 168.737C436.339 168.546 436.604 168.148 437.148 167.532C437.882 166.742 438.83 166.202 439.868 165.983C440.894 165.758 441.962 165.873 442.92 166.312C443.623 166.641 443.928 167.011 443.835 167.175Z" fill="#263238"/>
<path d="M453.826 180.055C454.799 179.501 455.833 179.068 456.905 178.767C457.395 178.602 457.86 178.397 457.873 178.027C457.804 177.482 457.577 176.971 457.223 176.561L454.928 172.916C451.717 167.723 449.276 163.421 449.475 163.325C449.674 163.229 452.447 167.298 455.657 172.491L457.9 176.163C458.34 176.725 458.579 177.427 458.576 178.15C458.537 178.347 458.456 178.533 458.339 178.694C458.222 178.855 458.072 178.987 457.9 179.082C457.64 179.224 457.363 179.33 457.077 179.397C456.028 179.768 454.934 179.989 453.826 180.055Z" fill="#263238"/>
<path d="M460.089 203.869C453.378 205.435 446.378 205.046 439.869 202.745C439.869 202.745 446.821 212.117 460.845 207.637L460.089 203.869Z" fill="#EB996E"/>
<path d="M444.167 164.271C444.034 164.86 442.004 164.846 439.696 165.435C437.387 166.025 435.556 166.915 435.185 166.449C435.026 166.23 435.291 165.655 435.994 165.079C436.929 164.266 438.039 163.698 439.231 163.421C440.414 163.132 441.645 163.132 442.827 163.421C443.769 163.599 444.26 163.997 444.167 164.271Z" fill="#263238"/>
<path d="M462.159 155.871C461.84 156.419 460.142 156.282 458.178 156.68C456.215 157.077 454.662 157.762 454.198 157.365C453.986 157.159 454.198 156.639 454.768 155.995C455.644 155.234 456.703 154.732 457.833 154.542C458.944 154.311 460.096 154.396 461.164 154.789C461.973 155.172 462.291 155.597 462.159 155.871Z" fill="#263238"/>
<path d="M426.534 142.457C426.828 143.942 427.435 145.341 428.311 146.556C429.187 147.771 430.312 148.772 431.605 149.487C432.898 150.202 434.328 150.615 435.793 150.695C437.258 150.776 438.722 150.522 440.081 149.952C442.177 149.075 444.353 147.431 446.476 148.226C448.599 149.021 449.475 152.145 451.505 153.309C454.49 155.036 458.138 152.049 461.469 152.35C464.122 152.583 466.126 154.679 468.182 156.461C470.239 158.242 473.078 159.585 475.4 158.297C474.868 156.008 474.08 153.792 473.052 151.692C472.014 149.579 470.297 147.903 468.195 146.952C467.028 146.472 465.767 146.308 464.653 145.718C462.252 144.458 461.177 141.608 459.439 139.457C458.297 138.101 456.859 137.046 455.244 136.379C453.629 135.712 451.883 135.452 450.151 135.62C447.285 135.922 444.565 137.415 441.673 137.292C439.537 137.196 437.494 136.209 435.358 136.251C431.205 136.251 428.087 140.087 425.778 143.663" fill="#263238"/>
<path d="M440.518 145.595C438.608 145.444 434.707 145.033 433.42 143.636C432.113 142.126 430.444 140.997 428.581 140.362C426.718 139.727 424.727 139.609 422.806 140.019C420.9 140.605 419.226 141.809 418.032 143.452C416.838 145.094 416.186 147.09 416.172 149.144C413.85 149.729 411.725 150.951 410.02 152.68C408.315 154.409 407.095 156.582 406.486 158.968C405.869 161.466 405.848 164.082 406.426 166.591C407.004 169.099 408.163 171.425 409.803 173.369C410.6 174.398 411.327 175.483 411.979 176.616C411.08 177.768 410.289 179.007 409.618 180.315C406.579 187.248 414.819 189.907 414.819 189.907C414.819 194.565 418.998 194.538 421.665 194.524C424.332 194.51 425.804 201.868 427.887 201.58L425.778 178.877C426.087 179.001 426.415 179.066 426.746 179.069C431.775 179.164 430.461 169.327 428.843 166.737C430.341 164.811 431.606 162.704 432.611 160.462C433.522 157.034 433.585 153.426 432.797 149.966C434.482 149.747 441.341 145.65 440.518 145.595Z" fill="#263238"/>
<path d="M426.441 180.082C426.27 179.361 425.925 178.696 425.437 178.15C424.95 177.604 424.336 177.194 423.654 176.958C422.972 176.723 422.243 176.67 421.536 176.804C420.828 176.938 420.165 177.255 419.608 177.726C418.282 178.904 417.578 180.877 418.374 184.179C420.524 193.003 428.657 188.961 428.604 188.715C428.551 188.468 427.37 183.727 426.441 180.082Z" fill="#FFBE9D"/>
<path d="M425.181 186.043C425.181 186.043 425.062 186.193 424.836 186.371C424.523 186.62 424.128 186.733 423.735 186.687C422.753 186.577 421.625 185.316 421.201 183.713C420.999 182.964 420.958 182.179 421.081 181.411C421.095 181.113 421.178 180.823 421.324 180.566C421.469 180.308 421.673 180.09 421.917 179.932C422.078 179.842 422.265 179.813 422.444 179.851C422.624 179.889 422.785 179.99 422.899 180.137C423.072 180.343 423.058 180.535 423.111 180.548C423.165 180.562 423.257 180.343 423.111 180C423.01 179.797 422.847 179.633 422.647 179.534C422.366 179.417 422.052 179.417 421.771 179.534C421.438 179.698 421.15 179.945 420.935 180.254C420.719 180.563 420.582 180.924 420.538 181.302C420.365 182.165 420.397 183.058 420.63 183.905C420.778 184.701 421.151 185.434 421.701 186.011C422.251 186.589 422.954 186.986 423.722 187.152C423.972 187.163 424.22 187.115 424.45 187.013C424.68 186.911 424.884 186.758 425.049 186.563C425.221 186.262 425.221 186.056 425.181 186.043Z" fill="#EB996E"/>
<path d="M472.255 167.764C472.255 167.764 473.038 167.148 474.126 165.778C475.627 163.803 476.548 161.426 476.779 158.927C476.955 157.221 476.793 155.496 476.302 153.857C475.735 151.977 474.685 150.291 473.263 148.979C471.622 147.499 469.635 146.488 467.498 146.045C465.362 145.603 463.15 145.745 461.084 146.458C460.686 146.595 460.314 146.801 459.943 146.965C459.571 147.13 459.239 147.376 458.894 147.582L458.364 147.883V147.28C458.352 146.219 457.971 145.197 457.289 144.403C456.591 143.632 455.734 143.033 454.781 142.649C452.979 141.874 450.983 141.72 449.089 142.211C445.428 143.074 442.323 144.8 439.391 145.156C437.091 145.569 434.726 145.081 432.757 143.786C432.237 143.417 431.787 142.953 431.43 142.416C431.218 142.046 431.112 141.841 431.138 141.827C431.619 142.504 432.206 143.092 432.876 143.567C434.813 144.722 437.089 145.116 439.285 144.677C440.812 144.38 442.306 143.921 443.743 143.307C445.429 142.611 447.157 142.029 448.917 141.567C449.898 141.322 450.907 141.215 451.916 141.251C452.98 141.31 454.026 141.56 455.007 141.991C456.021 142.439 456.928 143.113 457.66 143.964C458.445 144.892 458.887 146.076 458.908 147.308L458.377 147.006L459.478 146.349C459.889 146.184 460.274 145.965 460.699 145.814C462.877 145.044 465.214 144.883 467.472 145.347C469.73 145.812 471.829 146.885 473.555 148.459C475.048 149.854 476.14 151.645 476.713 153.638C477.309 155.75 477.389 157.981 476.947 160.132C476.504 162.284 475.554 164.289 474.179 165.969C473.742 166.484 473.248 166.944 472.706 167.34C472.573 167.5 472.422 167.642 472.255 167.764Z" fill="#455A64"/>
<path d="M470.53 136.785C469.659 136.329 468.73 136.001 467.771 135.812C466.674 135.658 465.557 135.765 464.507 136.128C463.146 136.557 461.965 137.445 461.15 138.649L460.818 139.128L460.619 138.58C459.926 136.896 458.811 135.433 457.389 134.342C455.966 133.251 454.287 132.571 452.526 132.373C449.759 132.266 447.032 133.083 444.751 134.703C442.807 136.011 440.74 137.113 438.581 137.991C437.093 138.572 435.49 138.77 433.911 138.566C433.49 138.486 433.077 138.367 432.677 138.21C432.412 138.087 432.266 138.018 432.279 137.991C432.292 137.964 432.876 138.169 433.951 138.279C435.477 138.377 437.005 138.12 438.422 137.525C440.52 136.58 442.531 135.443 444.432 134.127C445.607 133.374 446.851 132.745 448.147 132.25C449.572 131.713 451.095 131.512 452.605 131.661C454.487 131.873 456.278 132.608 457.787 133.788C459.297 134.968 460.468 136.548 461.176 138.361H460.659C461.571 137.073 462.874 136.138 464.361 135.703C465.49 135.365 466.681 135.304 467.837 135.525C468.569 135.668 469.27 135.947 469.907 136.347C470.134 136.462 470.344 136.609 470.53 136.785Z" fill="#455A64"/>
<path d="M453.057 184.111C452.747 183.843 452.386 183.646 451.997 183.533C451.608 183.419 451.201 183.392 450.801 183.453C450.334 183.556 449.893 183.759 449.507 184.05C449.12 184.34 448.797 184.711 448.559 185.138C448.559 185.138 448.492 185.207 448.479 185.248C448.297 185.561 448.213 185.925 448.24 186.289C448.298 186.686 448.449 187.062 448.681 187.385C448.912 187.707 449.216 187.966 449.567 188.139C450.128 188.432 450.763 188.54 451.385 188.447C452.007 188.354 452.586 188.064 453.043 187.618C453.477 187.145 453.72 186.519 453.722 185.867C453.725 185.215 453.487 184.587 453.057 184.111Z" fill="#2E5CFF"/>
<path d="M453.72 188.372C453.614 188.372 453.495 187.961 453.137 187.399C452.705 186.646 452.06 186.047 451.289 185.685C450.518 185.322 449.658 185.213 448.825 185.371C448.174 185.467 447.776 185.659 447.737 185.563C447.697 185.467 448.002 185.138 448.718 184.878C449.656 184.566 450.673 184.625 451.571 185.042C452.477 185.459 453.195 186.219 453.574 187.166C453.853 187.878 453.813 188.358 453.72 188.372Z" fill="#263238"/>
<path d="M426.64 190.071C426.64 190.071 427.025 190.756 426.521 191.797C426.236 192.42 425.733 192.909 425.114 193.167C424.728 193.31 424.315 193.358 423.907 193.308C423.5 193.259 423.109 193.112 422.766 192.88C422.417 192.66 422.121 192.361 421.903 192.004C421.684 191.648 421.548 191.244 421.506 190.824C421.466 190.147 421.658 189.478 422.05 188.933C422.739 188.029 423.509 188.002 423.509 188.084C423.509 188.166 422.925 188.399 422.461 189.221C422.192 189.682 422.08 190.222 422.142 190.756C422.192 191.068 422.307 191.366 422.478 191.629C422.65 191.891 422.875 192.112 423.137 192.277C423.397 192.448 423.688 192.561 423.992 192.608C424.296 192.655 424.606 192.636 424.902 192.551C425.392 192.37 425.814 192.034 426.11 191.592C426.627 190.742 426.534 190.071 426.64 190.071Z" fill="#2E5CFF"/>
<path d="M422.169 189.537C422.236 189.537 422.169 190.002 421.546 190.304C421.239 190.435 420.903 190.474 420.576 190.414C420.25 190.354 419.946 190.199 419.702 189.967C419.458 189.735 419.283 189.436 419.198 189.105C419.114 188.774 419.122 188.424 419.224 188.098C419.354 187.727 419.602 187.413 419.927 187.207C420.471 186.865 420.882 187.002 420.869 187.084C420.856 187.166 420.551 187.262 420.219 187.605C420.056 187.815 419.956 188.071 419.933 188.34C419.91 188.608 419.964 188.878 420.089 189.115C420.214 189.352 420.403 189.546 420.634 189.672C420.865 189.798 421.127 189.851 421.386 189.824C421.838 189.728 422.076 189.482 422.169 189.537Z" fill="#2E5CFF"/>
<path d="M436.751 311.222C436.751 311.222 469.602 313.195 489.026 313.373C504.058 313.523 510.772 309.399 513.77 299.411C516.291 291.039 510.878 274.967 510.878 274.967C500.702 274.967 494.426 276.474 487.885 279.639L489.623 286.983L436.658 291.697L436.751 311.222Z" fill="#FFBE9D"/>
<path d="M500.662 294.821C499.237 292.908 497.573 291.198 495.713 289.737C493.717 288.476 491.566 287.499 489.318 286.832C490.026 286.727 490.748 286.793 491.427 287.024C493.097 287.432 494.68 288.151 496.098 289.148C497.518 290.148 498.747 291.411 499.72 292.875C500.463 293.998 500.741 294.779 500.662 294.821Z" fill="#EB996E"/>
<path d="M424.73 279.584C424.73 279.584 414.567 282.105 407.097 287.257L415.057 309.536C417.711 316.853 425.818 320.498 432.306 316.661C442.296 310.756 445.826 293.546 445.826 293.546L456.798 244.385L438.608 232.615L424.796 279.584" fill="#FFBE9D"/>
<path d="M438.542 232.615L439.285 216.447L435.212 200.005C434.986 199.1 434.88 197.963 435.596 197.415C435.952 197.134 436.39 196.988 436.838 197.003C437.285 197.018 437.714 197.193 438.051 197.497C439.152 198.675 444.459 213.049 444.459 213.049C444.459 213.049 452.513 208.061 453.946 207.815C455.379 207.568 457.17 212.048 457.289 212.391C457.342 213.395 457.342 214.401 457.289 215.405C457.289 215.405 462.265 215.556 462.716 216.255C463.077 217.682 463.269 219.15 463.286 220.626C463.286 220.626 465.396 221.324 465.728 222.969C466.059 224.613 466.749 227.326 465.728 227.929C464.706 228.532 462.636 229.71 462.636 229.71C462.636 229.71 461.8 238.095 461.575 238.863C461.349 239.63 456.692 244.343 456.692 244.343L438.542 232.615Z" fill="#FFBE9D"/>
<path d="M421.612 316.99C421.612 316.99 422.103 317.291 423.138 317.634C424.651 318.124 426.252 318.255 427.821 318.017C430.343 317.646 432.704 316.522 434.615 314.784C437.14 312.418 439.273 309.641 440.93 306.563C441.906 304.754 442.727 302.86 443.385 300.904C444.075 298.751 444.646 296.56 445.096 294.341C446.131 289.723 447.259 284.75 448.453 279.461C450.841 268.897 453.521 257.086 456.414 244.357V244.261H456.48C457.396 243.329 458.311 242.384 459.226 241.397C459.678 240.904 460.129 240.411 460.553 239.904C460.766 239.644 460.991 239.383 461.164 239.123C461.298 238.865 461.375 238.579 461.389 238.287C461.747 235.547 462.026 232.71 462.318 229.847V229.669L462.477 229.586L465.011 228.12C465.197 227.997 465.489 227.86 465.608 227.75C465.735 227.632 465.819 227.473 465.847 227.298C465.909 226.844 465.909 226.383 465.847 225.928C465.719 224.923 465.519 223.93 465.25 222.955C464.799 222.102 464.041 221.468 463.14 221.187L462.915 221.105V220.872C462.915 220.077 462.835 219.255 462.742 218.447C462.706 218.042 462.649 217.64 462.57 217.241C462.539 217.066 462.485 216.895 462.411 216.734C462.411 216.638 462.411 216.734 462.331 216.652C462.259 216.613 462.183 216.581 462.106 216.556C460.51 216.197 458.883 216.009 457.25 215.994H456.905V215.638C456.905 214.789 456.905 213.843 456.905 212.898C456.85 212.575 456.742 212.265 456.586 211.98C456.453 211.651 456.294 211.336 456.135 211.007C455.824 210.372 455.46 209.767 455.047 209.198C454.859 208.933 454.631 208.702 454.37 208.513C454.274 208.429 454.156 208.377 454.031 208.362C453.906 208.347 453.779 208.371 453.667 208.431C453.025 208.685 452.4 208.982 451.796 209.322C449.329 210.692 446.914 212.062 444.552 213.542L444.207 213.761L444.061 213.377C442.814 210.13 441.567 206.924 440.346 203.786C439.736 202.21 439.139 200.635 438.529 199.086C438.434 198.74 438.248 198.427 437.99 198.185C437.731 197.942 437.412 197.78 437.069 197.716C436.752 197.608 436.409 197.613 436.095 197.733C435.782 197.852 435.517 198.078 435.344 198.374C435.179 198.668 435.109 199.009 435.145 199.347C435.145 199.648 435.331 200.114 435.411 200.484C435.623 201.279 435.822 202.06 436.021 202.841C436.419 204.416 436.804 205.965 437.202 207.499C437.98 210.587 438.745 213.601 439.497 216.542V216.638C439.232 222.265 438.98 227.655 438.741 232.806V232.779L426.654 273.391L423.244 284.695C422.846 285.969 422.541 286.969 422.329 287.668C422.116 288.367 421.984 288.668 421.984 288.668C421.984 288.668 422.05 288.312 422.236 287.641L423.072 284.64C423.841 281.996 424.942 278.173 426.335 273.295C429.201 263.485 433.275 249.481 438.197 232.601V232.669C438.427 227.536 438.661 222.146 438.9 216.501V216.597C438.144 213.651 437.361 210.637 436.578 207.568L435.384 202.909C435.185 202.128 434.986 201.333 434.774 200.552C434.66 200.142 434.567 199.726 434.495 199.306C434.446 198.83 434.544 198.351 434.774 197.935C435.019 197.508 435.398 197.18 435.849 197.004C436.294 196.869 436.765 196.854 437.218 196.959C437.67 197.065 438.09 197.288 438.436 197.607C438.769 197.929 439.016 198.335 439.152 198.785L440.97 203.485C442.204 206.636 443.438 209.842 444.698 213.076L444.207 212.898C446.582 211.445 448.97 209.993 451.491 208.637C452.129 208.293 452.784 207.986 453.455 207.718C453.665 207.628 453.893 207.595 454.118 207.623C454.345 207.656 454.563 207.741 454.755 207.869C455.075 208.106 455.357 208.393 455.591 208.719C456.035 209.318 456.421 209.961 456.745 210.637C456.918 210.979 457.077 211.308 457.223 211.651C457.412 212.014 457.538 212.408 457.595 212.816C457.595 213.788 457.595 214.693 457.595 215.556L457.263 215.186C458.968 215.198 460.668 215.4 462.331 215.789C462.445 215.83 462.556 215.88 462.663 215.94C462.809 216.022 462.928 216.145 463.008 216.296C463.111 216.518 463.187 216.753 463.233 216.995C463.313 217.433 463.366 217.844 463.419 218.269C463.499 219.105 463.552 219.927 463.592 220.749L463.353 220.42C463.895 220.584 464.4 220.861 464.835 221.233C465.271 221.605 465.629 222.065 465.887 222.585C466.178 223.626 466.391 224.689 466.524 225.764C466.616 226.312 466.616 226.873 466.524 227.422C466.466 227.754 466.297 228.055 466.046 228.271C465.828 228.422 465.603 228.559 465.369 228.682L462.849 230.039L463.021 229.778C462.716 232.642 462.437 235.451 462.066 238.232L461.986 238.767C461.955 238.983 461.868 239.187 461.734 239.356C461.539 239.656 461.321 239.94 461.084 240.205C460.633 240.726 460.182 241.233 459.757 241.726C458.842 242.713 457.926 243.658 456.997 244.59L457.09 244.425C454.171 257.141 451.465 268.952 449.037 279.516C447.829 284.791 446.675 289.764 445.614 294.368C445.16 296.604 444.575 298.81 443.862 300.972C443.18 302.947 442.336 304.858 441.341 306.686C439.646 309.803 437.463 312.609 434.88 314.989C432.912 316.739 430.49 317.854 427.914 318.196C426.311 318.418 424.68 318.249 423.151 317.702C422.762 317.555 422.385 317.376 422.023 317.168L421.612 316.99Z" fill="#EB996E"/>
<path d="M457.303 215.446C457.303 215.542 456.852 215.597 456.148 215.624C455.255 215.642 454.366 215.752 453.495 215.953C452.654 216.167 451.878 216.595 451.239 217.2C450.762 217.666 450.549 218.063 450.443 218.022C450.337 217.981 450.443 217.488 450.881 216.857C451.499 216.06 452.359 215.5 453.322 215.268C454.251 215.032 455.216 214.985 456.162 215.131C456.878 215.227 457.303 215.35 457.303 215.446Z" fill="#EB996E"/>
<path d="M453.455 215.597C453.282 215.529 453.269 215.104 453.455 214.652C453.64 214.2 453.906 213.885 454.078 213.953C454.251 214.022 454.277 214.446 454.078 214.899C453.879 215.351 453.587 215.666 453.455 215.597Z" fill="#EB996E"/>
<path d="M463.512 220.571C462.224 220.983 460.879 221.172 459.531 221.133C459.107 221.118 458.686 221.209 458.303 221.397C457.919 221.586 457.586 221.866 457.329 222.215C456.984 222.777 457.103 223.243 456.997 223.27C456.891 223.298 456.573 222.818 456.904 221.996C457.087 221.533 457.42 221.15 457.846 220.914C458.338 220.635 458.88 220.467 459.439 220.42C460.793 220.206 462.175 220.257 463.512 220.571Z" fill="#EB996E"/>
<path d="M462.636 225.504C462.822 225.504 462.928 226.517 462.875 227.764C462.822 229.011 462.623 229.998 462.437 229.998C462.252 229.998 462.132 228.97 462.185 227.723C462.238 226.476 462.437 225.49 462.636 225.504Z" fill="#EB996E"/>
<path d="M468.142 262.402L469.323 258.21C469.377 258.018 469.479 257.843 469.618 257.704C469.757 257.565 469.928 257.466 470.116 257.416C470.303 257.366 470.5 257.368 470.687 257.421C470.873 257.473 471.044 257.575 471.181 257.716L472.733 259.347L473.688 255.387C473.744 255.158 473.867 254.953 474.04 254.799C474.213 254.644 474.428 254.549 474.656 254.525C474.883 254.501 475.112 254.55 475.311 254.665C475.511 254.78 475.672 254.955 475.771 255.168L477.934 259.854L468.142 262.402Z" fill="white"/>
<path d="M477.96 261.648C476.476 262.389 474.9 262.915 473.277 263.21C471.707 263.74 470.071 264.035 468.421 264.087C471.475 262.82 474.686 261.999 477.96 261.648Z" fill="white"/>
<path d="M399.056 238.26C399.056 238.26 398.565 238.78 397.875 239.89C396.949 241.471 396.34 243.227 396.084 245.056C395.706 247.778 395.626 250.536 395.845 253.277C395.991 256.387 396.23 259.785 396.602 263.348C397.23 269.432 398.165 275.478 399.401 281.461C399.866 283.763 400.29 285.572 400.582 286.942C400.715 287.517 400.834 287.997 400.927 288.408C401.02 288.819 401.033 288.929 401.033 288.929C401.033 288.929 400.967 288.764 400.874 288.436C400.781 288.107 400.635 287.531 400.489 286.969C400.157 285.695 399.706 283.859 399.162 281.557C397.873 275.576 396.911 269.524 396.283 263.43C395.912 259.867 395.686 256.456 395.554 253.345C395.352 250.602 395.45 247.845 395.845 245.124C396.131 243.272 396.781 241.5 397.756 239.918C398.115 239.307 398.553 238.75 399.056 238.26Z" fill="white"/>
<path d="M426.985 219.598L426.68 219.763L425.805 220.201C425.048 220.571 423.947 221.119 422.634 221.873C419.209 223.845 415.884 225.994 412.669 228.313C408.875 231.053 405.518 233.547 403.063 235.355L400.158 237.479L399.349 238.041C399.258 238.115 399.16 238.18 399.057 238.233C399.132 238.141 399.222 238.062 399.322 238L400.092 237.397L402.944 235.191C405.372 233.341 408.716 230.765 412.51 228.08C415.73 225.751 419.08 223.619 422.541 221.695C423.868 220.968 424.982 220.448 425.765 220.105L426.654 219.722C426.919 219.626 426.919 219.585 426.985 219.598Z" fill="white"/>
<path d="M490.26 228.518C490.177 228.471 490.101 228.411 490.034 228.34L489.437 227.806C488.698 227.161 487.923 226.562 487.115 226.011C484.422 224.238 481.564 222.746 478.584 221.558C475.613 220.343 472.579 219.3 469.496 218.434C468.302 218.091 467.346 217.845 466.67 217.68L465.913 217.475C465.821 217.455 465.732 217.423 465.648 217.379H465.927L466.696 217.53C467.373 217.667 468.341 217.886 469.535 218.201C472.648 219.013 475.706 220.033 478.69 221.256C481.687 222.444 484.548 223.97 487.221 225.805C488.334 226.583 489.354 227.494 490.26 228.518Z" fill="white"/>
<path d="M427.357 333.103C427.177 333.07 427.003 333.01 426.84 332.925C426.379 332.716 425.935 332.469 425.513 332.185C424.798 331.743 424.175 331.159 423.679 330.468C423.182 329.777 422.823 328.992 422.62 328.157C422.256 326.472 422.438 324.71 423.138 323.142C423.34 322.655 423.599 322.195 423.907 321.772C424.12 321.484 424.266 321.347 424.279 321.361C423.917 321.945 423.593 322.554 423.31 323.183C422.694 324.723 422.55 326.421 422.899 328.047C423.279 329.653 424.225 331.055 425.553 331.98C426.654 332.802 427.384 333.048 427.357 333.103Z" fill="white"/>
<path d="M423.138 318.264C423.42 318.808 423.63 319.389 423.761 319.991C423.969 320.567 424.094 321.172 424.133 321.786C423.831 321.254 423.616 320.676 423.496 320.073C423.278 319.495 423.157 318.884 423.138 318.264Z" fill="white"/>
<path d="M441.076 625.471L481.543 625.265L480.813 480.78L480.428 333.802L425.592 333.076L415.734 352.258C411.701 359.97 409.13 368.406 408.158 377.113C407.495 383.772 412.324 405.421 413.996 410.902L429.082 460.31L441.076 625.471Z" fill="#263238"/>
<path d="M492.303 333.98L536.777 459.172C539.412 467.239 540.287 475.807 539.339 484.264C538.392 492.72 535.646 500.856 531.297 508.088L479.659 612.221L450.629 574.705L493.829 481.534L455.75 417.752L462.158 334.172L480.096 333.87L492.303 333.98Z" fill="#263238"/>
<path d="M476.74 375.921C476.74 375.921 476.74 376.14 476.74 376.565C476.74 376.99 476.806 377.647 476.859 378.456C476.952 380.141 477.072 382.566 477.231 385.704C477.536 392.048 477.961 401.159 478.558 412.409C479.155 423.658 479.659 437.072 480.322 452.007C480.641 459.46 480.986 467.284 481.331 475.395C481.583 479.506 481.477 483.617 481.516 487.727C481.556 491.838 481.516 496.167 481.516 500.47C481.516 534.902 481.622 566.074 481.662 588.668C481.662 599.93 481.662 609.056 481.662 615.4C481.662 618.537 481.662 620.976 481.662 622.675C481.662 623.47 481.662 624.046 481.662 624.566C481.662 625.087 481.662 625.21 481.662 625.21C481.662 625.21 481.662 624.991 481.662 624.566V622.675C481.662 620.976 481.662 618.565 481.583 615.4C481.583 609.056 481.477 599.944 481.397 588.681C481.304 566.087 481.185 534.916 481.052 500.483C481.052 496.181 481.052 491.933 481.052 487.741C481.052 483.548 481.132 479.41 480.88 475.409C480.548 467.311 480.216 459.488 479.911 452.034C479.301 437.127 478.743 423.713 478.292 412.422C477.841 401.132 477.509 392.062 477.257 385.718C477.151 382.594 477.072 380.155 477.019 378.456C477.019 377.647 477.019 377.086 477.019 376.565C477.019 376.044 476.74 375.921 476.74 375.921Z" fill="#455A64"/>
<path d="M475.718 336.446C475.873 336.887 475.967 337.348 475.997 337.816C476.143 338.693 476.302 339.968 476.488 341.557C476.833 344.722 477.204 349.12 477.416 353.985C477.629 358.849 477.642 363.261 477.576 366.453C477.576 368.042 477.483 369.344 477.416 370.235C477.43 370.697 477.376 371.159 477.257 371.605C477.09 369.893 477.032 368.172 477.085 366.453C477.085 363.261 476.939 358.876 476.726 354.012C476.514 349.148 476.222 344.777 475.997 341.68C475.808 339.943 475.715 338.195 475.718 336.446Z" fill="#455A64"/>
<path d="M466.802 339.269C466.868 339.365 466.112 339.721 465.9 340.831C465.84 341.132 465.857 341.444 465.947 341.736C466.038 342.029 466.2 342.293 466.417 342.502C466.68 342.754 467.007 342.923 467.36 342.989C467.713 343.055 468.076 343.014 468.407 342.872C468.725 342.703 468.991 342.445 469.174 342.128C469.357 341.811 469.45 341.447 469.442 341.077C469.43 340.771 469.342 340.472 469.186 340.211C469.031 339.949 468.813 339.734 468.553 339.584C468.014 339.314 467.412 339.205 466.815 339.269C466.815 339.269 466.948 339.091 467.293 338.981C467.79 338.856 468.314 338.909 468.779 339.132C469.149 339.291 469.47 339.553 469.704 339.89C469.938 340.226 470.077 340.623 470.106 341.036C470.158 341.546 470.055 342.061 469.809 342.507C469.564 342.953 469.19 343.309 468.738 343.523C468.287 343.738 467.782 343.801 467.294 343.704C466.807 343.607 466.361 343.355 466.019 342.982C465.737 342.692 465.537 342.329 465.441 341.93C465.345 341.531 465.357 341.113 465.475 340.721C465.608 340.208 465.908 339.759 466.324 339.447C466.59 339.255 466.789 339.228 466.802 339.269Z" fill="#455A64"/>
<path d="M445.574 336.789C445.769 337.221 445.891 337.685 445.932 338.159C446.146 339.389 446.186 340.644 446.052 341.886C445.861 343.735 445.344 345.532 444.526 347.189C443.538 349.249 442.075 351.028 440.266 352.368C438.457 353.708 436.357 354.569 434.15 354.875C432.384 355.148 430.585 355.078 428.843 354.67C427.665 354.406 426.53 353.967 425.473 353.368C425.074 353.173 424.707 352.914 424.385 352.601C425.852 353.282 427.381 353.81 428.949 354.177C430.836 354.582 432.784 354.579 434.67 354.167C436.556 353.756 438.339 352.945 439.906 351.786C441.473 350.628 442.791 349.146 443.775 347.435C444.76 345.724 445.391 343.82 445.627 341.845C445.783 340.163 445.765 338.468 445.574 336.789Z" fill="#455A64"/>
<path d="M497.637 348.792C496.771 348.895 495.894 348.787 495.076 348.476C493.072 347.825 491.272 346.633 489.862 345.024C488.439 343.422 487.462 341.452 487.036 339.324C486.827 338.455 486.827 337.547 487.036 336.679C487.155 336.679 487.168 337.679 487.566 339.214C488.104 341.197 489.082 343.023 490.422 344.548C491.763 346.072 493.429 347.253 495.288 347.997C496.668 348.559 497.65 348.655 497.637 348.792Z" fill="#455A64"/>
<path d="M513.439 483.754C512.774 484.537 511.978 485.191 511.09 485.685C510.159 486.296 509.143 486.758 508.079 487.056C506.739 487.422 505.325 487.384 504.005 486.946C501.688 486.044 499.702 484.415 498.327 482.287C497.695 481.488 497.173 480.603 496.774 479.657C497.491 480.363 498.139 481.138 498.711 481.972C500.12 483.902 502.023 485.387 504.204 486.261C505.318 486.568 506.48 486.638 507.621 486.466C508.761 486.294 509.856 485.884 510.838 485.261C511.676 484.707 512.545 484.204 513.439 483.754Z" fill="#455A64"/>
<path d="M503.302 491.742C501.734 490.065 500.334 488.229 499.123 486.261C497.728 484.43 496.51 482.461 495.488 480.383C497.066 482.054 498.471 483.891 499.68 485.864C501.087 487.685 502.301 489.655 503.302 491.742Z" fill="#455A64"/>
<path d="M435.318 380.758C435.132 380.826 434.667 380.045 434.256 378.99C433.845 377.935 433.672 377.045 433.845 376.962C434.017 376.88 434.495 377.675 434.893 378.73C435.291 379.785 435.49 380.758 435.318 380.758Z" fill="#FAFAFA"/>
<path d="M461.004 384.567C460.805 384.567 460.659 383.896 460.659 383.06C460.659 382.224 460.805 381.539 461.004 381.539C461.203 381.539 461.349 382.224 461.349 383.06C461.349 383.896 461.19 384.567 461.004 384.567Z" fill="#FAFAFA"/>
<path d="M450.443 398.981C450.257 398.981 450.045 398.159 449.979 397.104C449.912 396.049 449.979 395.199 450.191 395.186C450.403 395.172 450.602 396.008 450.669 397.063C450.735 398.118 450.629 398.967 450.443 398.981Z" fill="#FAFAFA"/>
<path d="M431.152 409.531C430.992 409.655 430.448 409.148 429.732 408.627C429.015 408.106 428.405 407.709 428.405 407.517C428.405 407.325 429.281 407.435 430.09 408.038C430.899 408.641 431.311 409.531 431.152 409.531Z" fill="#FAFAFA"/>
<path d="M465.157 422.973C464.998 422.863 465.157 422.274 465.608 421.603C466.059 420.931 466.471 420.548 466.63 420.657C466.789 420.767 466.63 421.37 466.179 422.027C465.728 422.685 465.316 423.082 465.157 422.973Z" fill="#FAFAFA"/>
<path d="M444.167 426.768C443.981 426.768 443.822 425.631 443.822 424.247C443.822 422.863 443.981 421.712 444.167 421.712C444.353 421.712 444.512 422.85 444.512 424.247C444.512 425.645 444.313 426.768 444.167 426.768Z" fill="#FAFAFA"/>
<path d="M437.295 442.142C437.188 442.292 436.499 441.977 435.756 441.415C435.013 440.854 434.429 440.278 434.601 440.114C434.774 439.949 435.411 440.278 436.154 440.84C436.897 441.402 437.414 441.977 437.295 442.142Z" fill="#FAFAFA"/>
<path d="M458.549 447.485C458.629 447.663 458.204 448.033 457.594 448.321C456.984 448.609 456.427 448.677 456.347 448.499C456.267 448.321 456.705 447.951 457.316 447.663C457.926 447.375 458.483 447.307 458.549 447.485Z" fill="#FAFAFA"/>
<path d="M444.167 472.56C444.008 472.642 443.318 471.587 442.641 470.189C441.965 468.792 441.553 467.586 441.726 467.449C441.898 467.312 442.588 468.422 443.252 469.819C443.915 471.217 444.287 472.409 444.167 472.56Z" fill="#FAFAFA"/>
<path d="M467.612 470.23C467.439 470.134 467.744 469.216 468.275 468.161C468.806 467.106 469.403 466.339 469.602 466.435C469.801 466.531 469.469 467.449 468.925 468.504C468.381 469.559 467.771 470.326 467.612 470.23Z" fill="#FAFAFA"/>
<path d="M457.329 491.455C457.13 491.455 457.156 490.345 456.944 489.057C456.732 487.769 456.413 486.741 456.599 486.645C456.785 486.549 457.422 487.522 457.634 488.947C457.846 490.372 457.515 491.496 457.329 491.455Z" fill="#FAFAFA"/>
<path d="M446.316 503.58C446.184 503.717 445.52 503.197 444.844 502.429C444.167 501.662 443.729 500.936 443.875 500.799C444.021 500.662 444.671 501.182 445.348 501.95C446.025 502.717 446.462 503.443 446.316 503.58Z" fill="#FAFAFA"/>
<path d="M473.038 508.184C472.905 508.047 473.396 507.307 474.139 506.526C474.882 505.745 475.572 505.238 475.718 505.375C475.864 505.512 475.36 506.266 474.63 507.033C473.9 507.801 473.184 508.321 473.038 508.184Z" fill="#FAFAFA"/>
<path d="M457.674 526.339C457.488 526.339 457.488 525.256 457.674 523.996C457.86 522.735 458.152 521.749 458.351 521.776C458.55 521.803 458.536 522.845 458.351 524.105C458.165 525.366 457.86 526.366 457.674 526.339Z" fill="#FAFAFA"/>
<path d="M447.338 535.149C447.166 535.245 446.582 534.532 446.011 533.559C445.441 532.587 445.149 531.723 445.308 531.627C445.467 531.532 446.051 532.23 446.635 533.203C447.219 534.176 447.497 535.039 447.338 535.149Z" fill="#FAFAFA"/>
<path d="M472.242 546.261C472.361 546.426 471.685 547.124 470.73 547.823C469.774 548.522 468.938 548.961 468.819 548.796C468.7 548.632 469.389 547.933 470.332 547.234C471.274 546.535 472.136 546.111 472.242 546.261Z" fill="#FAFAFA"/>
<path d="M451.491 560.689C451.305 560.621 451.491 559.525 451.663 558.154C451.836 556.784 451.73 555.661 451.929 555.633C452.128 555.606 452.473 556.757 452.34 558.223C452.207 559.689 451.663 560.771 451.491 560.689Z" fill="#FAFAFA"/>
<path d="M459.783 581.406C459.624 581.529 459.067 581.064 458.523 580.365C457.979 579.666 457.674 578.995 457.82 578.871C457.966 578.748 458.523 579.214 459.067 579.913C459.611 580.611 459.929 581.283 459.783 581.406Z" fill="#FAFAFA"/>
<path d="M450.722 595.299C450.563 595.409 449.833 594.601 449.09 593.477C448.347 592.354 447.883 591.367 448.028 591.258C448.174 591.148 448.917 591.956 449.66 593.08C450.403 594.203 450.881 595.19 450.722 595.299Z" fill="#FAFAFA"/>
<path d="M475.678 577.858C475.506 577.789 475.519 577.282 475.678 576.734C475.838 576.186 476.196 575.775 476.381 575.843C476.567 575.912 476.541 576.419 476.381 576.981C476.222 577.542 475.864 577.94 475.678 577.858Z" fill="#FAFAFA"/>
<path d="M464.666 610.947C464.493 610.851 464.825 609.878 465.09 608.659C465.356 607.439 465.449 606.412 465.648 606.398C465.847 606.384 466.046 607.494 465.767 608.81C465.488 610.125 464.825 611.057 464.666 610.947Z" fill="#FAFAFA"/>
<path d="M471.831 399.201C471.658 399.283 471.234 398.735 470.889 397.968C470.544 397.2 470.398 396.515 470.571 396.433C470.743 396.351 471.168 396.899 471.513 397.666C471.857 398.433 472.03 399.118 471.831 399.201Z" fill="#FAFAFA"/>
<path d="M453.455 356.533C453.561 356.698 452.632 357.465 451.637 358.561C450.642 359.657 449.965 360.671 449.793 360.575C449.62 360.479 450.072 359.205 451.12 358.082C452.168 356.958 453.322 356.355 453.455 356.533Z" fill="#FAFAFA"/>
<path d="M469.814 356.094C469.615 356.094 469.31 355.313 468.846 354.382C468.381 353.45 467.957 352.683 468.103 352.546C468.249 352.409 468.965 353.011 469.429 354.053C469.894 355.094 469.987 355.985 469.814 356.094Z" fill="#FAFAFA"/>
<path d="M418.733 369.947C418.56 369.865 418.733 368.961 419.144 367.919C419.555 366.878 420.006 366.07 420.192 366.152C420.378 366.234 420.192 367.125 419.781 368.18C419.369 369.235 418.958 370.016 418.733 369.947Z" fill="#FAFAFA"/>
<path d="M420.391 390.637C420.259 390.788 419.502 390.349 418.693 389.65C417.884 388.952 417.366 388.28 417.446 388.116C417.525 387.951 418.335 388.404 419.144 389.102C419.953 389.801 420.511 390.486 420.391 390.637Z" fill="#FAFAFA"/>
<path d="M453.906 340.105C453.733 340.105 453.362 339.667 453.097 338.968C452.831 338.269 452.752 337.598 452.924 337.598C453.097 337.598 453.468 338.036 453.733 338.735C453.999 339.434 454.078 340.037 453.906 340.105Z" fill="#FAFAFA"/>
<path d="M486.001 350.217C485.815 350.217 485.828 349.354 486.001 348.381C486.173 347.408 486.518 346.641 486.704 346.682C486.89 346.723 486.876 347.559 486.704 348.531C486.531 349.504 486.186 350.258 486.001 350.217Z" fill="#FAFAFA"/>
<path d="M493.537 365.878C493.365 365.796 493.603 364.782 494.081 363.59C494.559 362.398 495.076 361.507 495.249 361.575C495.421 361.644 495.249 362.672 494.718 363.864C494.187 365.056 493.723 365.946 493.537 365.878Z" fill="#FAFAFA"/>
<path d="M488.163 378.51C487.991 378.593 487.354 377.647 486.744 376.4C486.133 375.154 485.788 374.044 485.961 373.962C486.133 373.879 486.757 374.825 487.367 376.072C487.978 377.318 488.336 378.415 488.163 378.51Z" fill="#FAFAFA"/>
<path d="M499.653 391.144C499.481 391.075 499.653 390.281 499.945 389.376C500.237 388.472 500.702 387.787 500.887 387.855C501.073 387.924 500.887 388.719 500.595 389.623C500.303 390.527 499.892 391.212 499.653 391.144Z" fill="#FAFAFA"/>
<path d="M489.384 403.517C489.225 403.626 488.814 403.256 488.482 402.708C488.15 402.16 487.991 401.612 488.163 401.503C488.336 401.393 488.721 401.763 489.066 402.325C489.411 402.886 489.543 403.421 489.384 403.517Z" fill="#FAFAFA"/>
<path d="M491.573 429.056C491.441 429.18 490.605 428.508 489.729 427.522C488.854 426.535 488.257 425.645 488.402 425.508C488.548 425.371 489.371 426.056 490.247 427.042C491.122 428.029 491.719 428.919 491.573 429.056Z" fill="#FAFAFA"/>
<path d="M505.04 414.382C504.894 414.506 504.164 413.82 503.421 412.834C502.678 411.847 502.201 410.97 502.347 410.847C502.493 410.724 503.222 411.423 503.965 412.395C504.708 413.368 505.199 414.273 505.04 414.382Z" fill="#FAFAFA"/>
<path d="M512.43 434.62C512.258 434.537 512.563 433.51 513.107 432.331C513.651 431.153 514.221 430.249 514.434 430.331C514.646 430.413 514.314 431.454 513.77 432.633C513.226 433.811 512.603 434.715 512.43 434.62Z" fill="#FAFAFA"/>
<path d="M496.721 451.281C496.549 451.377 495.938 450.623 495.089 449.815C494.24 449.006 493.457 448.444 493.537 448.239C493.616 448.033 494.625 448.403 495.554 449.294C496.482 450.185 496.88 451.185 496.721 451.281Z" fill="#FAFAFA"/>
<path d="M497.703 468.449C497.703 468.641 497.04 468.805 496.23 468.805C495.421 468.805 494.771 468.641 494.771 468.449C494.771 468.257 495.421 468.093 496.23 468.093C497.04 468.093 497.703 468.257 497.703 468.449Z" fill="#FAFAFA"/>
<path d="M513.85 463.653C513.677 463.558 514.022 462.694 514.274 461.626C514.527 460.557 514.633 459.625 514.832 459.611C515.031 459.598 515.243 460.598 514.951 461.79C514.659 462.982 513.996 463.763 513.85 463.653Z" fill="#FAFAFA"/>
<path d="M529.891 469.422C529.718 469.49 529.227 468.517 528.803 467.271C528.378 466.024 528.179 464.955 528.352 464.9C528.524 464.845 529.028 465.791 529.453 467.038C529.878 468.285 530.077 469.353 529.891 469.422Z" fill="#FAFAFA"/>
<path d="M527.33 492.989C527.171 492.893 527.582 491.742 528.246 490.413C528.909 489.084 529.572 488.084 529.771 488.18C529.97 488.276 529.533 489.427 528.856 490.742C528.179 492.057 527.503 493.112 527.33 492.989Z" fill="#FAFAFA"/>
<path d="M512.696 506.814C512.523 506.882 511.979 505.937 511.475 504.69C510.971 503.443 510.719 502.374 510.905 502.292C511.09 502.21 511.621 503.169 512.112 504.416C512.603 505.663 512.868 506.814 512.696 506.814Z" fill="#FAFAFA"/>
<path d="M496.482 512.171C496.482 512.363 495.925 512.527 495.249 512.527C494.572 512.527 494.028 512.363 494.028 512.171C494.028 511.979 494.585 511.815 495.249 511.815C495.912 511.815 496.482 511.979 496.482 512.171Z" fill="#FAFAFA"/>
<path d="M505.77 534.217C505.597 534.217 505.226 533.464 504.947 532.422C504.669 531.381 504.616 530.477 504.801 530.436C504.987 530.395 505.345 531.189 505.624 532.231C505.903 533.272 505.956 534.108 505.77 534.217Z" fill="#FAFAFA"/>
<path d="M494.028 526.818C493.869 526.722 494.028 526.078 494.466 525.379C494.904 524.68 495.342 524.201 495.501 524.297C495.66 524.393 495.501 525.05 495.063 525.749C494.625 526.448 494.2 526.928 494.028 526.818Z" fill="#FAFAFA"/>
<path d="M493.789 551.084C493.603 551.084 493.338 550.166 493.205 548.974C493.072 547.782 493.112 546.809 493.298 546.782C493.484 546.754 493.749 547.7 493.882 548.892C494.014 550.084 493.975 551.057 493.789 551.084Z" fill="#FAFAFA"/>
</svg>
